# xmcd
#
# Track frame offsets:
#	183
#	12998
#	23953
#	38255
#	51973
#	66815
#	77265
#	92055
#	106368
#	118515
#
# Disc length: 1763 seconds
#
# Revision: 2
# Processed by: cddbd v1.5.1PL0 Copyright (c) Steve Scherf et al.
# Submitted via: audiograbber 1.83.01
#
DISCID=6e06e10a
DTITLE=Eddy RAVEN - Greatest Hits
DYEAR=1990
DGENRE=Country
TTITLE0=Who Do You Know In California
TTITLE1=She's Playing Hard To Forget
TTITLE2=I Should've Called
TTITLE3=San Antonio Nights
TTITLE4=I Don't Like Leaving You
TTITLE5=A Little Bit Crazy
TTITLE6=You've Got Those Eyes
TTITLE7=Raven On The Wing
TTITLE8=Sweet Mother Texas
TTITLE9=Peace Of Mind
EXTD=
EXTT0=
EXTT1=
EXTT2=
EXTT3=
EXTT4=
EXTT5=
EXTT6=
EXTT7=
EXTT8=
EXTT9=
PLAYORDER=
